<svg width="1200" height="630" viewBox="0 0 1200 630" xmlns="http://www.w3.org/2000/svg">
  <defs>
    <linearGradient id="bgGrad" x1="0%" y1="0%" x2="100%" y2="100%">
      <stop offset="0%" stop-color="#020617" />
      <stop offset="100%" stop-color="#050b14" />
    </linearGradient>
    <linearGradient id="accentGrad" x1="0%" y1="0%" x2="100%" y2="0%">
      <stop offset="0%" stop-color="#a855f7" />
      <stop offset="100%" stop-color="#ec4899" />
    </linearGradient>
  </defs>

  <rect width="1200" height="630" fill="url(#bgGrad)" />

  <g opacity="0.12">
    <path d="M0,100 L1200,100 M0,200 L1200,200 M0,300 L1200,300 M0,400 L1200,400 M0,500 L1200,500" stroke="#ffffff" stroke-width="1" />
    <path d="M200,0 L200,630 M400,0 L400,630 M600,0 L600,630 M800,0 L800,630 M1000,0 L1000,630" stroke="#ffffff" stroke-width="1" />
  </g>

  <circle cx="1100" cy="100" r="180" fill="#a855f7" opacity="0.25" filter="blur(80px)" />
  <circle cx="100" cy="500" r="220" fill="#ec4899" opacity="0.2" filter="blur(90px)" />

  <g transform="translate(80, 80)">
    <text x="0" y="25" fill="#ffffff" font-family="'Segoe UI', Roboto, sans-serif" font-size="28" font-weight="950" letter-spacing="0.05em">TEXLY<tspan fill="#a855f7">ONLINE</tspan></text>
    <rect x="235" y="-1" width="220" height="36" rx="18" fill="rgba(255,255,255,0.07)" stroke="rgba(255,255,255,0.15)" stroke-width="1.5" />
    <text x="345" y="22" fill="#e2e8f0" font-family="'Segoe UI', Roboto, sans-serif" font-size="13" font-weight="700" text-anchor="middle" letter-spacing="0.06em">ONLINE TOOLS</text>
  </g>

  <text x="80" y="280" fill="#ffffff" font-family="'Segoe UI', Roboto, Helvetica, sans-serif" font-size="44" font-weight="950" letter-spacing="-0.03em">Free Redirect Chain</text>
<text x="80" y="335" fill="#ffffff" font-family="'Segoe UI', Roboto, Helvetica, sans-serif" font-size="44" font-weight="950" letter-spacing="-0.03em">Checker – Detect 301, 302</text>
<text x="80" y="390" fill="#ffffff" font-family="'Segoe UI', Roboto, Helvetica, sans-serif" font-size="44" font-weight="950" letter-spacing="-0.03em">& SEO Redirect Issues</text>
<text x="80" y="445" fill="#ffffff" font-family="'Segoe UI', Roboto, Helvetica, sans-serif" font-size="44" font-weight="950" letter-spacing="-0.03em">Instantly</text>

  <rect x="80" y="510" width="180" height="6" rx="3" fill="url(#accentGrad)" />

  <g transform="translate(80, 500)">
    <rect x="0" y="0" width="310" height="48" rx="10" fill="url(#accentGrad)" opacity="0.15" />
    <rect x="0" y="0" width="310" height="48" rx="10" fill="none" stroke="url(#accentGrad)" stroke-width="2" />
    <text x="25" y="29" fill="#ffffff" font-family="'Segoe UI', Roboto, sans-serif" font-size="15" font-weight="800" fill-opacity="0.95">⚡ Human Crafted SEO Article</text>

    <rect x="330" y="0" width="230" height="48" rx="10" fill="rgba(255, 255, 255, 0.05)" stroke="rgba(255,255,255,0.1)" stroke-width="1.5" />
    <text x="355" y="29" fill="#cbd5e1" font-family="'Segoe UI', Roboto, sans-serif" font-size="14" font-weight="700">✓ AI High-CTR Banner</text>
  </g>

  <rect x="20" y="20" width="1160" height="590" fill="none" stroke="rgba(255, 255, 255, 0.15)" stroke-width="1.5" rx="16" />
</svg>